<?xml version="1.0" encoding="UTF-8"?> <svg xmlns="http://www.w3.org/2000/svg" id="Lager_1" data-name="Lager 1" viewBox="0 0 860.9 239.59"><defs><style> .cls-1 { fill: #fff; } </style></defs><g><path class="cls-1" d="m530.86,91.46c-.69-.14-1.32-.03-1.9.34-.58.37-.94.89-1.08,1.58-.63,3.17-1.25,6-1.86,8.49-.62,2.49-1.38,5.35-2.31,8.57-.92,3.22-1.95,6.47-3.08,9.75-2.42,6.9-4.39,11.44-5.91,13.63-1.52,2.19-2.67,2.6-3.45,1.23-.78-1.37-1.2-4.19-1.26-8.48-.06-4.28.16-9.5.66-15.63.29-3.07.56-5.82.79-8.25.23-2.43.48-4.5.75-6.21.25-2.05.55-3.85.92-5.39.4-2.56-.19-4.51-1.78-5.85-1.59-1.33-3.45-2.19-5.59-2.56-2.14-.37-4.17-.29-6.1.26-1.93.55-3,1.42-3.2,2.62l-2.01,9.51c-3.05-3.69-6.55-6.26-10.52-7.7-3.97-1.44-7.8-1.57-11.48-.4-4.02,1.19-7.21,4-9.57,8.44-2.27,4.51-3.25,10.29-2.95,17.32.19,4.49.73,8.12,1.62,10.88.88,2.76,1.89,4.93,3.02,6.49.43.6.88,1.1,1.34,1.55-.41,1.39-.84,2.78-1.28,4.18-3.74,11.71-7.55,20.87-11.43,27.5-2.06,3.57-4,5.67-5.84,6.3-1.84.63-3.54.24-5.08-1.18-1.55-1.42-2.98-3.67-4.3-6.76-1.32-3.09-2.51-6.6-3.57-10.54-1.06-3.95-1.99-8.13-2.77-12.55-.79-4.42-1.44-8.71-1.95-12.84-1.21-10.48-1.81-21.36-1.79-32.66.73-.71,1.47-1.4,2.2-2.07.73-.67,1.43-1.36,2.08-2.06,2.35-2.48,4.49-5.12,6.41-7.92,1.92-2.8,3.61-5.84,5.08-9.13,2.71-5.98,4.49-12.06,5.33-18.25.84-6.19.68-11.9-.48-17.11-.52-2.1-1.24-4.13-2.17-6.08-.93-1.95-2.09-3.67-3.47-5.14-1.38-1.47-3-2.61-4.86-3.42-1.86-.81-3.93-1.17-6.22-1.07-4.41.19-8.14,3.2-11.2,9.02-2.68,4.87-4.85,11.5-6.53,19.9-1.61,7.97-2.73,16.91-3.37,26.83-.51,7.9-.65,15.94-.47,24.11-.47,2.27-.94,4.34-1.4,6.22-.62,2.49-1.38,5.35-2.31,8.57-.92,3.22-1.95,6.47-3.08,9.75-2.42,6.9-4.39,11.44-5.91,13.63-1.52,2.19-2.67,2.6-3.45,1.23-.78-1.37-1.2-4.19-1.26-8.48-.06-4.28.16-9.5.66-15.63.29-3.07.56-5.82.79-8.25.23-2.43.49-4.5.75-6.21.25-2.05.56-3.85.91-5.39.4-2.56-.19-4.51-1.78-5.85-1.59-1.33-3.45-2.19-5.59-2.56-2.14-.37-4.17-.29-6.1.26-1.93.55-3,1.42-3.2,2.62l-2.01,9.51c-3.05-3.69-6.55-6.26-10.52-7.7-3.97-1.44-7.8-1.57-11.48-.4-4.02,1.19-7.21,4-9.57,8.44-1.2,2.39-2.03,5.14-2.51,8.23-.6.92-1.25,1.81-1.99,2.67-2.59,3-5.56,5.93-8.92,8.79-1.41-1.13-2.88-2.21-4.41-3.25-1.53-1.04-3.04-2.08-4.53-3.12-2.8-1.83-5.51-3.73-8.14-5.7-2.63-1.97-4.98-4.18-7.04-6.64,2.81-5.73,4.59-11.7,5.34-17.94.3-2.81.29-5.53-.03-8.15-.33-2.62-1.04-4.92-2.14-6.91-1.1-1.99-2.7-3.51-4.78-4.57-2.08-1.06-4.73-1.43-7.95-1.12-2.63.11-5.1.94-7.41,2.48-1.24.9-2.38,1.97-3.43,3.2-1.05,1.24-1.92,2.63-2.62,4.19-1.4,3.03-2.02,6.41-1.86,10.14.26,5.93,1.31,11.09,3.15,15.47,1.84,4.38,4.11,8.25,6.81,11.62.89,1.11,1.81,2.15,2.76,3.17-.56,2.18-1.21,4.61-1.99,7.31-.92,3.22-1.95,6.47-3.08,9.75-2.42,6.9-4.39,11.44-5.91,13.63-1.52,2.19-2.67,2.6-3.45,1.23-.78-1.37-1.2-4.19-1.26-8.48-.06-4.29.16-9.5.66-15.63.29-3.07.56-5.82.79-8.25.23-2.43.49-4.5.75-6.21.25-2.05.56-3.84.91-5.39.4-2.56-.19-4.51-1.78-5.85s-3.45-2.19-5.59-2.56c-2.14-.37-4.17-.29-6.1.26-1.93.55-3,1.42-3.2,2.62l-2.01,9.51c-3.05-3.69-6.55-6.26-10.52-7.7-3.97-1.44-7.8-1.57-11.48-.4-4.02,1.19-7.21,4-9.57,8.44-2.27,4.51-3.25,10.29-2.95,17.32.19,4.49.73,8.12,1.62,10.88.47,1.47.98,2.76,1.52,3.89-2.67,7.24-5.72,12.98-9.14,17.2-1.21,1.58-2.44,2.95-3.71,4.11-1.27,1.16-2.51,1.91-3.72,2.26-1.22.35-2.41.15-3.59-.61-1.18-.76-2.25-2.3-3.19-4.64-1.33-3.25-2.1-7.42-2.32-12.51-.14-5.17.13-10.83.8-16.98.67-6.14,1.46-12.37,2.38-18.7,1.1-8.03,2-15.65,2.71-22.85.71-7.2.57-13.46-.43-18.77-1.47-6.56-4.62-11.16-9.45-13.8-4.83-2.64-10.49-3.56-17-2.77-7.69.93-14.73,5.43-21.14,13.52-6.4,8.09-12.36,20.19-17.86,36.31-.46,1.21-.89,2.44-1.31,3.69-.41,1.25-.81,2.48-1.18,3.68-.02-.51,0-.89.08-1.15,1.93-30.14-1.26-50-9.58-59.58-3.76-4.42-8.57-6.51-14.43-6.26-10.53.45-19.74,6.71-27.64,18.77-3.03,4.63-5.86,10.08-8.48,16.35-2.62,6.27-5,13.36-7.12,21.26-1.62,5.93-2.98,11.7-4.1,17.31-1.12,5.61-2.04,10.81-2.77,15.59-.44-4.23-.85-8.84-1.23-13.83-.39-4.99-.75-10.05-1.1-15.17-.35-5.12-.59-10.23-.72-15.32-.14-5.09-.17-9.88-.11-14.39,3.05-2,5.74-4.26,8.05-6.78,2.31-2.52,4.12-5.46,5.42-8.83.84-2.16,1.35-4.11,1.53-5.86.18-1.75.16-3.27-.07-4.58-.23-1.31-.59-2.41-1.1-3.33-.51-.91-.98-1.66-1.43-2.23-1.52-1.72-3.44-2.93-5.76-3.64-2.32-.71-4.79-.79-7.4-.25-3.1.64-5.98,2.21-8.66,4.7-2.67,2.66-4.63,6.1-5.88,10.32-1.38,5.15-2.18,13.04-2.4,23.67-1.75.76-3.55,1.45-5.39,2.08-1.84.63-3.68,1.29-5.52,1.96-4.85,1.74-9.65,3.56-14.41,5.46-4.76,1.9-8.99,4.17-12.7,6.79C3.68,95.72-.39,103.71.03,113.54c.03.68.31,1.26.84,1.75.53.49,1.13.72,1.81.69.68-.03,1.26-.31,1.75-.84.49-.53.72-1.13.69-1.81-.18-4.07.54-7.68,2.14-10.85,1.6-3.17,4.26-6.06,7.97-8.69,3.46-2.44,7.4-4.56,11.83-6.37,4.42-1.8,9.1-3.58,14.04-5.32,1.51-.49,3.03-1.02,4.58-1.6,1.55-.58,3.07-1.15,4.58-1.73.02,4.42.16,9.21.43,14.38.26,5.17.61,10.76,1.04,16.77.41,5.59.87,10.9,1.39,15.93.51,5.03.98,9.47,1.4,13.31.42,3.85.76,6.91,1.03,9.19.27,2.28.4,3.47.41,3.55.09,2.03,1.06,3.35,2.91,3.95,1.85.6,3.85.73,6,.38,2.15-.35,4.14-1.05,5.96-2.1,1.82-1.05,2.79-2.26,2.9-3.63-.01-.25.13-1.92.42-4.99.29-3.07.8-7.06,1.52-11.98.72-4.91,1.69-10.52,2.91-16.81,1.21-6.29,2.74-12.79,4.57-19.49,2.05-7.65,4.32-14.47,6.82-20.48,2.5-6.01,5.18-11.24,8.05-15.69,2.79-4.28,5.55-7.6,8.3-9.97,2.74-2.37,5.3-3.54,7.68-3.51,2.38.02,4.56,1.35,6.54,3.98,1.98,2.63,3.65,6.85,5,12.65,2.08,8.83,2.83,20.38,2.26,34.68-.25,6.12-.65,12.04-1.21,17.76-.56,5.71-1.15,10.81-1.76,15.3-.62,4.48-1.4,9.47-2.35,14.94-.43,1.8-.31,3.22.37,4.25.68,1.03,1.65,1.73,2.89,2.1,1.25.37,2.65.46,4.21.26,1.56-.2,3.07-.6,4.53-1.21,1.46-.62,2.72-1.39,3.78-2.33,1.06-.94,1.7-1.92,1.91-2.95.14-.68.49-2.46,1.04-5.33.56-2.87,1.36-6.43,2.41-10.68,1.05-4.25,2.31-8.99,3.78-14.24,1.47-5.24,3.15-10.58,5.04-16.01,2.34-6.72,4.76-12.73,7.25-18.02,2.49-5.29,5.01-9.9,7.56-13.83,1.03-1.57,2.57-3.49,4.59-5.74,2.02-2.25,4.23-4.19,6.63-5.83,2.39-1.63,4.81-2.65,7.26-3.05,2.44-.4,4.6.42,6.47,2.46,2.67,2.94,3.91,9,3.71,18.18-.07,4.33-.4,9.04-.98,14.12-.59,5.08-1.23,10.39-1.92,15.94-.77,5.81-1.47,11.61-2.12,17.41-.64,5.8-.98,11.25-1.02,16.35-.08,6.12.4,11.19,1.42,15.22,1.02,4.03,2.6,7.23,4.74,9.6,3.21,3.51,7.57,5.15,13.08,4.91,7.2-.31,13.54-3.89,19.03-10.75,2.1-2.55,4.07-5.61,5.91-9.17,1.02-1.98,1.99-4.09,2.91-6.33.49.38.99.7,1.51.91,1.3.54,2.46.83,3.48.87,2.71-.12,5.14-.81,7.3-2.1,2.15-1.28,4.08-2.87,5.78-4.77,1.7-1.9,3.2-3.96,4.51-6.18,1.3-2.22,2.43-4.29,3.36-6.2-.43,5.88-.46,11.06-.1,15.54.55,6.94,2,11.97,4.34,15.1,2.07,2.71,4.71,4,7.94,3.86,2.8-.12,5.3-1.25,7.5-3.38,2.2-2.13,4.17-4.66,5.91-7.58,1.74-2.92,3.21-5.91,4.39-8.98,1.18-3.06,2.12-5.59,2.79-7.57,1.21-3.36,2.28-6.68,3.2-9.95.47-1.68.9-3.26,1.3-4.75.62.53,1.24,1.06,1.88,1.55,3.21,2.49,6.34,4.82,9.41,6.98,1.4,1.04,2.74,2.03,4.01,2.95,1.27.92,2.48,1.83,3.62,2.71-1.14,1.07-2.24,2.16-3.3,3.26-1.06,1.11-2.03,2.27-2.91,3.5-4.66,6.14-6.84,12.69-6.54,19.64.19,4.49,1.74,7.97,4.65,10.43,2.91,2.46,6.44,3.61,10.59,3.43,3.98-.17,7.88-1.44,11.68-3.81,3.88-2.54,6.8-5.73,8.76-9.55,2.36-4.26,3.43-9.06,3.2-14.4-.28-4.57-1.24-8.46-2.86-11.66-1.62-3.2-3.72-6.06-6.29-8.58,2.37-2.04,4.56-4.17,6.62-6.38,0,.21,0,.4.01.61.19,4.49.73,8.12,1.62,10.88.88,2.76,1.89,4.93,3.02,6.49,1.13,1.57,2.34,2.62,3.64,3.16,1.3.54,2.46.83,3.48.87,2.71-.12,5.14-.81,7.3-2.1,2.15-1.28,4.08-2.87,5.78-4.77,1.7-1.9,3.2-3.96,4.51-6.18,1.3-2.22,2.43-4.29,3.36-6.2-.43,5.88-.46,11.06-.1,15.54.55,6.94,2,11.97,4.34,15.1,2.07,2.71,4.71,4,7.94,3.86,2.8-.12,5.3-1.25,7.5-3.38,2.2-2.13,4.17-4.66,5.91-7.58,1.74-2.92,3.21-5.91,4.39-8.98,1.18-3.06,2.12-5.59,2.79-7.57,1.09-3.01,2.04-5.97,2.89-8.9.48,5.82,1.14,11.4,1.97,16.72,1.35,8.6,3.09,16.09,5.23,22.45,2.52,7.19,5.43,12.76,8.74,16.69,3.93,4.5,8.31,6.65,13.14,6.44,2.03-.09,3.92-.59,5.67-1.52,1.74-.92,3.33-2.1,4.75-3.52,1.42-1.42,2.72-2.96,3.88-4.62,1.16-1.66,2.17-3.24,3.04-4.72,4.2-7.06,8.2-16.57,12.02-28.54.36-1.15.68-2.28,1.02-3.42.39.08.78.13,1.13.15,2.71-.12,5.14-.81,7.3-2.1,2.15-1.28,4.08-2.87,5.78-4.77,1.7-1.9,3.21-3.96,4.51-6.18,1.31-2.22,2.43-4.29,3.36-6.2-.43,5.88-.46,11.06-.09,15.54.55,6.94,2,11.97,4.34,15.1,2.07,2.71,4.71,4,7.94,3.86,2.8-.12,5.3-1.25,7.5-3.38s4.17-4.66,5.92-7.58c1.74-2.92,3.21-5.91,4.39-8.98,1.18-3.06,2.12-5.59,2.79-7.57,1.21-3.36,2.28-6.68,3.2-9.95.92-3.27,1.69-6.16,2.3-8.7.61-2.53,1.1-4.59,1.45-6.18.36-1.58.53-2.46.52-2.63.14-.69,0-1.32-.4-1.89-.41-.58-.95-.93-1.64-1.08Zm-102.39-15.78c.24-3.36.54-6.67.91-9.91.31-2.64.77-5.66,1.39-9.04.62-3.38,1.32-6.7,2.12-9.96.79-3.26,1.66-6.23,2.61-8.9.95-2.67,1.9-4.6,2.87-5.79.97-1.19,1.89-1.44,2.77-.76.88.68,1.65,2.79,2.31,6.33,1.05,4.63,1.19,9.8.41,15.52-.77,5.72-2.4,11.27-4.89,16.64-2.87,6.24-6.55,11.62-11.02,16.14.11-3.48.28-6.91.51-10.28ZM68.96,56.32c.29-2.22.69-4.19,1.21-5.91.89-3.1,1.94-5.26,3.16-6.5,1.22-1.24,2.26-1.69,3.13-1.34.86.35,1.42,1.4,1.67,3.18.25,1.77-.21,4.08-1.36,6.94-.84,2.16-1.99,4.14-3.44,5.94-1.45,1.8-3.12,3.47-5.01,4.99.14-2.64.35-5.07.64-7.29Zm190.44,64.02c-1.32,2.94-2.77,5.64-4.36,8.09-1.34,2.52-2.42,4.05-3.24,4.6-.83.55-1.51.41-2.06-.42-.54-.82-.94-2.19-1.19-4.09-.25-1.9-.43-4.08-.54-6.54-.16-3.73.08-7.07.71-10.03s1.58-5.12,2.84-6.49c1.26-1.37,2.83-1.73,4.73-1.1,1.89.64,4.02,2.74,6.38,6.28,0,.09.09.21.27.37-1.05,3.27-2.23,6.38-3.55,9.32Zm45.34-23.86c-1.02-1.99-1.86-4.17-2.51-6.52-.65-2.35-1.04-5.01-1.17-7.97-.1-2.29-.05-4.2.13-5.74.19-1.54.43-2.78.73-3.73.3-.95.63-1.64.99-2.08.36-.44.62-.75.79-.93.82-.63,1.52-.72,2.09-.28.57.44,1.08,1.04,1.54,1.78.65,1.33,1.06,3.03,1.24,5.11.17,2.07.1,4.35-.22,6.82-.25,2.22-.68,4.47-1.3,6.74-.62,2.28-1.4,4.54-2.32,6.79Zm21.76,54.28c-.71,2.2-1.65,4.23-2.79,6.11-1.15,1.87-2.42,3.5-3.8,4.88-1.39,1.38-2.69,2.2-3.91,2.46-1.22.26-2.26-.09-3.1-1.08-.85-.98-1.33-2.87-1.45-5.67-.2-4.75.8-8.93,3.03-12.55,2.22-3.62,5.01-6.99,8.35-10.1,1.42,1.38,2.52,2.86,3.31,4.44.79,1.58,1.23,3.34,1.31,5.29.08,1.95-.23,4.02-.94,6.22Zm45.42-35.26c-1.32,2.94-2.77,5.64-4.36,8.08-1.34,2.52-2.42,4.05-3.24,4.6-.83.54-1.51.4-2.06-.42-.54-.82-.94-2.19-1.19-4.09-.25-1.9-.43-4.08-.54-6.54-.16-3.73.08-7.07.71-10.03.64-2.96,1.58-5.12,2.84-6.49,1.26-1.37,2.83-1.73,4.73-1.1,1.89.64,4.02,2.74,6.38,6.28,0,.09.09.21.27.37-1.05,3.27-2.23,6.38-3.55,9.32Zm117.22-5.05c-1.32,2.94-2.77,5.64-4.37,8.09-1.34,2.52-2.42,4.05-3.24,4.6-.83.54-1.51.4-2.06-.42-.54-.82-.94-2.19-1.19-4.09-.25-1.9-.43-4.08-.54-6.54-.11-2.52-.02-4.85.24-7.02.4-1.85.75-3.46,1.04-4.82.06-.31.12-.59.18-.86.56-1.62,1.26-2.9,2.1-3.82,1.26-1.37,2.83-1.73,4.73-1.1,1.89.64,4.02,2.74,6.38,6.28,0,.09.09.21.27.37-1.05,3.27-2.23,6.38-3.55,9.32Z"></path><path class="cls-1" d="m859.61,1.27c-1.27-.88-2.82-1.3-4.64-1.27-1.83.04-3.65.46-5.49,1.25-1.83.8-2.97,1.89-3.43,3.27-1.06,3.1-2.06,5.95-3.01,8.54-.95,2.59-2.23,4.83-3.85,6.72-1.62,1.9-3.78,3.47-6.48,4.74-2.71,1.26-6.34,2.12-10.91,2.57-4.31.44-8.91.64-13.79.59-4.89-.04-9.86-.28-14.93-.69-5.07-.42-10.15-.96-15.23-1.64-5.08-.67-10.06-1.33-14.92-1.97-.03-2.55-.05-5.01-.06-7.39-.02-2.38-.15-4.41-.39-6.1-.27-2.28-1.34-3.93-3.21-4.96-1.87-1.02-3.89-1.57-6.06-1.65-2.17-.08-4.13.28-5.88,1.08-1.75.8-2.59,1.87-2.54,3.23.03.76.07,1.7.12,2.8.05,1.1.08,2.29.09,3.56.01,1.27.02,2.55.04,3.82.01,1.27,0,2.46-.04,3.57-3.15-.29-6.18-.52-9.07-.69-2.89-.17-5.61-.2-8.16-.09-5.6.16-10.02.98-13.27,2.48-4,1.7-6.43,4.52-7.28,8.47-.22.86.15,1.52,1.11,1.99.96.47,2.07.74,3.35.81s2.48-.04,3.62-.35c1.13-.3,1.77-.84,1.9-1.61.35-1.88,1.5-3.29,3.45-4.22,1.96-.93,4.29-1.56,6.99-1.89,2.7-.33,5.61-.43,8.71-.31,3.11.12,5.98.3,8.62.52l-.25,17.84c-.02,5.44-.07,11.13-.16,17.07-.08,5.95-.12,12-.11,18.16,0,2.73.03,5.45.05,8.17-.68,1.92-1.34,3.73-1.95,5.42-1.03,2.8-2.23,5.96-3.61,9.45s-2.92,7.07-4.63,10.71c-3.42,7.28-6.11,12.34-8.07,15.19-1.96,2.84-3.26,3.73-3.9,2.65-.64-1.08-.64-3.96,0-8.66.65-4.7,1.91-10.95,3.78-18.76.79-3.43,1.62-6.69,2.51-9.79.89-3.1,1.68-5.85,2.38-8.25.7-2.41,1.5-5.03,2.4-7.87.36-1.37.26-2.41-.33-3.11-.58-.7-1.45-1.17-2.61-1.42-1.16-.25-2.46-.32-3.89-.21-1.44.1-2.83.29-4.18.56-1.35.27-2.5.58-3.46.91-.96.34-1.57.6-1.81.78-2.58,1.3-4.89,2.36-6.93,3.16-2.05.81-4.41,1.57-7.1,2.28-2.69.71-5.47,1.17-8.35,1.38.38-1.12.74-2.43,1.1-3.93.36-1.5.71-3.11,1.07-4.82,1.91-9,1.41-15.51-1.48-19.55-.72-.9-1.8-1.81-3.24-2.73-1.44-.91-3.39-1.32-5.85-1.21-3.81.16-6.82,2.25-9.03,6.25-.87,1.57-1.51,3.36-1.93,5.37-.42,2.01-.59,4.12-.49,6.33.23,5.34,1.82,9.81,4.78,13.42,2.39,2.84,5.32,4.66,8.75,5.49-.04.37-.2,1.51-.47,3.45-.33,2.31-.85,5.34-1.58,9.11-.73,3.77-1.63,8.03-2.7,12.79-1.07,4.76-2.35,9.59-3.83,14.49-3.41,11.52-7.18,20.69-11.3,27.49-2.62,4.19-4.87,6.71-6.74,7.55-1.87.85-3.4.48-4.57-1.08-1.17-1.56-2.05-4.14-2.62-7.72-.58-3.59-.93-7.71-1.04-12.37-.19-6.36,0-13.27.57-20.72.57-7.45,1.23-15.32,1.98-23.58.48-4.61.92-9.19,1.32-13.75.4-4.56.71-9.05.95-13.48,10.28-3.84,16.18-9.74,17.71-17.7.14-.68.03-1.32-.34-1.9-.36-.58-.89-.94-1.57-1.08-.69-.14-1.32-.03-1.9.34-.58.37-.94.89-1.08,1.57-.63,3-2.03,5.56-4.19,7.7-2.16,2.13-4.95,3.95-8.36,5.45.33-6.13.36-11.9.08-17.33-.28-5.42-1.01-10.23-2.21-14.42-1.12-4.2-2.92-7.69-5.42-10.47-2.5-2.78-5.43-4.9-8.81-6.37-3.37-1.47-7.02-2.29-10.93-2.46-3.91-.17-7.78.21-11.61,1.14-3.82.93-7.49,2.45-11.01,4.55-3.52,2.11-6.57,4.7-9.15,7.78-3.31,3.96-6.18,8.78-8.61,14.45-2.43,5.67-4.42,12.19-5.97,19.55-.5,2.15-.94,4.35-1.31,6.62-.37,2.27-.71,4.6-1.04,6.99-2.87.38-5.48.87-7.83,1.48-5.13,1.24-8.96,2.93-11.5,5.08-3.29,2.52-4.84,5.81-4.67,9.88.03.68.31,1.26.84,1.75.53.49,1.13.72,1.81.69.68-.03,1.26-.31,1.75-.84.49-.53.72-1.13.69-1.81-.03-.76.06-1.57.28-2.43.22-.86.75-1.71,1.61-2.55.86-.84,2.09-1.68,3.71-2.52,1.62-.83,3.86-1.61,6.71-2.33.92-.21,1.89-.4,2.9-.57,1.01-.17,2.02-.36,3.03-.58-.31,3.41-.58,6.92-.83,10.54-.25,3.62-.38,7.34-.4,11.16-.14,6.55-.09,12.72.16,18.53.25,5.81.53,10.93.85,15.38.32,4.44.64,7.98.97,10.59.32,2.62.49,3.97.49,4.05.12.67.47,1.23,1.05,1.67.58.44,1.22.6,1.91.49.69-.11,1.26-.46,1.72-1.03.45-.57.62-1.19.51-1.87,0-.09-.17-1.42-.49-3.99-.32-2.58-.64-6.04-.96-10.4-.32-4.36-.62-9.42-.91-15.18-.29-5.76-.36-11.83-.21-18.21.08-4.08.23-7.97.45-11.67s.55-7.3,1-10.81c3.29-.4,6.8-.72,10.53-.96,3.72-.24,7.58-.5,11.56-.75,5.25-.39,10.45-.77,15.62-1.12,5.16-.35,10.15-.88,14.96-1.6-.28,3.32-.56,6.69-.84,10.1-.28,3.41-.56,6.82-.83,10.23-.69,7.67-1.32,15.26-1.89,22.75-.57,7.5-.84,14.47-.82,20.92.16,7.64.83,13.83,2.01,18.57,1.18,4.75,2.97,8.38,5.37,10.91,2.76,3.02,6.35,4.44,10.75,4.25,12.29-.53,22.62-14.9,31.01-43.11,1.48-4.99,2.78-9.93,3.88-14.81,1.11-4.89,2.02-9.24,2.75-13.05.73-3.81,1.46-8.07,2.19-12.77.01-.05,0-.1.01-.15.12,0,.24,0,.36,0,3.9-.17,7.63-.77,11.2-1.82,3.56-1.04,6.55-2.09,8.97-3.12-.82,2.58-1.77,5.77-2.84,9.55-1.07,3.78-2.11,7.78-3.11,11.98-4.59,19.73-5.06,32.4-1.42,38.02.91,1.4,1.99,2.38,3.25,2.92,1.25.54,2.56.78,3.92.72,2.88-.12,5.65-1.37,8.31-3.73,2.66-2.37,5.06-5.17,7.22-8.4,2.15-3.24,4.05-6.52,5.69-9.86,1.64-3.34,2.92-6.05,3.85-8.13,1.71-3.64,3.27-7.25,4.69-10.84.37-.95.73-1.87,1.08-2.77.12,4.69.28,9.27.47,13.72.68,13.81,1.89,24.67,3.63,32.58,1.74,7.91,4.07,13.24,6.99,16,1.86,1.7,3.93,2.51,6.22,2.41h.13c5.25-.32,10.43-5.17,15.55-14.56,1.8-3.47,3.64-7.59,5.52-12.34,1.88-4.75,3.75-10.1,5.62-16.04,1.57-4.99,2.97-9.91,4.2-14.77,1.24-4.85,2.28-9.18,3.13-13,.86-3.81,1.77-8.08,2.76-12.79.14-.69,0-1.32-.4-1.89-.41-.58-.95-.93-1.64-1.08-.69-.14-1.32,0-1.89.4-.58.41-.94.95-1.08,1.64-.91,4.62-1.79,8.82-2.64,12.6-.86,3.77-1.9,8.04-3.14,12.81-1.24,4.77-2.64,9.6-4.22,14.51-1.79,5.85-3.58,11.06-5.38,15.64-1.8,4.58-3.6,8.56-5.41,11.95-1.26,2.35-2.35,3.5-3.29,3.45-.94-.05-1.76-.92-2.47-2.63-.71-1.71-1.32-4.1-1.84-7.18-.51-3.08-.96-6.41-1.32-10-.37-3.59-.66-7.34-.87-11.24-.21-3.9-.39-7.5-.53-10.8-.23-5.34-.38-10.85-.46-16.54-.08-5.69-.11-11.35-.09-17,.01-5.65.05-11.21.11-16.69s.11-10.72.15-15.74l.31-16.57c.34.07.66.12.96.15.3.03.66.04,1.08.02,8.28,1.09,16.82,2.1,25.6,3.04,8.79.94,17.16,1.24,25.13.89,1.19-.05,2.31-.12,3.37-.21,1.06-.09,2.18-.2,3.36-.34,4.48-.45,8.75-1.29,12.82-2.53,4.06-1.24,7.77-2.9,11.12-5,3.35-2.1,6.25-4.71,8.71-7.83,2.45-3.12,4.31-6.83,5.57-11.13.59-2.06.25-3.53-1.02-4.41Zm-218.74,56.73c-.11,3.27-.27,6.66-.46,10.15-4.98.81-10.11,1.39-15.4,1.75-5.29.36-10.56.73-15.81,1.13-3.81.25-7.49.49-11.05.73-3.56.24-6.98.56-10.28.95,1.36-9.91,3.32-18.53,5.89-25.85,2.57-7.33,5.8-13.28,9.68-17.87,6.14-7.23,13.71-11.03,22.69-11.42,2.37-.1,4.37.39,5.99,1.46,1.62,1.08,2.97,2.51,4.07,4.28,1.1,1.78,1.97,3.82,2.62,6.13.65,2.31,1.13,4.62,1.45,6.94.31,2.32.49,4.56.54,6.73.05,2.16.11,4.01.17,5.53.04,2.97,0,6.09-.11,9.37Zm46.15,21.77c-.82-1.24-1.54-2.78-2.17-4.62-.63-1.84-1.14-3.86-1.53-6.05-.39-2.19-.54-4.26-.46-6.22.09-1.96.42-3.67.99-5.14.57-1.47,1.49-2.4,2.75-2.79,2.01-.68,3.47-.34,4.38,1.02.91,1.36,1.47,3.1,1.69,5.21.22,2.11.23,4.28.03,6.5-.2,2.22-.41,3.8-.62,4.74-.43,1.89-.86,3.65-1.3,5.28-.44,1.63-.85,2.97-1.23,4-.85-.05-1.69-.69-2.5-1.93Z"></path></g><g><path class="cls-1" d="m533.25,196.09c-3.37-3.46-4.4-6.74-4.58-9.73,4.58-1.4,7.67-4.21,9.17-5.99,2.71-3.27,1.31-6.64,1.31-6.64-1.12-3.84-6.55-3.74-6.55-3.74,0,0-9.92-.19-12.07,11.23-.09.84-.28,1.5-.28,2.25-1.68-.47-3.37-1.12-5.15-2.15-.94-.65-2.25-.09-2.53,1.03-.28,1.31-.28,2.71,1.12,3.27,2.25.84,4.3,1.31,6.27,1.59.09,6.55,3.09,10.2,7.2,14.22,0,0,7.76,6.36,5.24,17.59,0,0-1.4,5.52-5.43,5.61-3.74.09-8.79-2.25-7.58-8.51.75-4.58,3.84-6.46,5.52-7.11.75-.37,1.12-1.31.65-2.06-.37-.75-1.03-1.12-1.68-1.31-1.4-.47-2.99-.19-4.12.84-2.81,2.34-3.93,6.46-3.93,6.46-3.84,14.69,10.48,15.44,10.48,15.44,6.55.75,13.66-3.46,15.06-11.79,1.87-11.32-8.14-20.49-8.14-20.49Zm-4.21-15.9c.65-6.36,5.52-6.74,5.52-6.74,0,0,1.78-.28,2.34,1.12,0,0,.47.84-.19,2.53-.56,1.5-3.65,4.58-8.05,5.99.09-1.03.28-1.96.37-2.9Z"></path><path class="cls-1" d="m548.78,195.06c1.5-.09,2.71-1.4,2.53-2.9-.09-1.59-1.4-2.71-2.9-2.62-1.5.09-2.71,1.4-2.62,2.99.09,1.5,1.4,2.62,2.99,2.53Z"></path><path class="cls-1" d="m557.29,195.62c1.59-.09,2.71-1.5,2.62-2.99-.09-1.5-1.4-2.71-2.9-2.62-1.59.09-2.71,1.5-2.62,2.99.09,1.5,1.4,2.71,2.9,2.62Z"></path><path class="cls-1" d="m785.55,212.37l-.37.19c-.56.19-.94.65-1.03,1.22-2.43,18.06-5.33,22.08-7.76,21.42-2.62-.65-1.31-16.75.19-27.13,1.5-10.48-5.71-10.01-5.71-10.01-8.14-.47-9.17,18.99-10.2,19.18-.94.28,0-14.87,0-14.87.28-5.71-4.86-5.89-4.86-5.89-3.37-.28-5.52,1.5-6.74,4.21-1.31,2.81-1.59,6.46-1.59,6.46-1.22,10.57-2.71,15.25-2.71,15.25-1.03-1.5.28-17.49.28-17.49,1.22-9.73-3.93-8.89-3.93-8.89,0,0-3.74.19-4.3,7.67-.26,3.69-.27,8.01.13,11.93-1.92,13.4-4.2,15.38-5.46,15.29-5.89-.65-3.84-26.94-3.84-26.94.75-11.97,1.31-18.43,1.31-18.43.75-8.05-3.55-7.48-3.55-7.48-6.08.09-6.08,28.72-6.08,28.72,0,0-.17,3.88.24,8.77-.16,1.06-.34,2.03-.52,2.83,0,0-1.31,6.08-4.96,5.52-4.02-.65-2.53-19.93-2.53-19.93.28-7.48-4.12-6.46-4.12-6.46-1.22.19-2.06,1.12-2.62,2.53-.56-1.4-1.87-2.71-4.68-2.43-4.12.47-9.17,3.84-9.73,17.77,0,0-.01.2-.01.53-2.37,16.25-5.13,19.93-7.47,19.31-2.62-.65-1.31-16.75.19-27.13,1.5-10.48-5.71-10.01-5.71-10.01-8.14-.47-9.17,18.99-10.2,19.18-.94.28,0-14.87,0-14.87.28-5.71-4.86-5.89-4.86-5.89-3.37-.28-5.52,1.5-6.74,4.21-1.31,2.81-1.59,6.46-1.59,6.46-1.22,10.57-2.71,15.25-2.71,15.25-1.03-1.5.28-17.49.28-17.49,1.22-9.73-3.93-8.89-3.93-8.89,0,0-3.74.19-4.3,7.67-.25,3.57-.27,7.72.09,11.52-2.39,16.6-5.11,16.06-7.57,15.51-2.25-.47-1.31-12.26.19-22.64,0,0,.19-1.78.37-2.9.09-.84-.09-1.59-.47-2.25-.37-.65-.94-1.4-1.68-1.96-.37-.28-.75-.37-1.12-.37-1.59-.09-6.08-.28-10.01-.84-.28-1.31-1.4-6.27-4.49-8.14-1.4-.94-3.37-.37-4.02,1.22-.28.75-.47,1.68-.47,3.09,0,3.55,2.34,5.71,6.08,6.83,0,0,2.81,22.27-12.16,21.89-2.99-.09-3.93-3.84-4.21-7.02,7.3-5.61,6.83-14.87,6.83-14.87,0,0,.19-5.33-5.05-5.15-4.12.19-9.26,3.84-9.73,17.77,0,0-.04.45-.01,1.17-1.83,12.15-3.62,11.73-4.76,11.56-5.24-.56-3.46-24.14-3.46-24.14.75-12.07,1.31-18.43,1.31-18.43.75-8.14-3.55-7.48-3.55-7.48-3.93,0-5.33,11.88-5.8,20.3-.75-.56-1.87-1.03-3.46-.84-3.93.45-8.8,3.55-9.72,15.99-.79.83-2.29,1.84-4.78,2.07,1.03-7.58-.84-13.56-4.21-15.06-.47-2.06-3.56-2.15-3.56-2.15-9.54-.19-8.89,14.97-8.89,14.97,0,0-.09,13,8.51,12.63,0,0,5.71.47,7.76-8.14,1.23-.06,3.14-.41,5.03-1.59.01,2.59.57,9.71,6.38,10.01,3.65.19,6.17-1.68,7.48-6.92,1.22,6.46,3.46,13,9.64,13.1,4.57.05,6.67-4.69,7.72-9.71,1.52,2.66,4.4,5.06,9.87,5.22,18.71-.47,16.09-24.32,16.09-24.32,1.22.28,2.34.47,4.21.75,0,3.09-.37,9.92-1.12,18.06-1.12,13.28,8.79,12.72,8.79,12.72,5.54.12,8.14-6.39,9.42-12.58.87,2.56,2.12,4.3,3.86,4.53,5.15.56,7.3-6.92,9.45-22.83,0,0,.19-.84.84-.56,0,0,.37,0,.37.94,0,.28-.09.75-.09,1.31-.19,2.06-1.5,17.31,4.49,17.77,0,0,4.58,1.03,5.8-5.43,0,0,2.99-14.78,4.3-14.69.28.09.37.84,0,5.8-.19,2.71-.47,5.8-.47,12.44,0,18.52,9.07,17.77,9.07,17.77,5.06-.12,7.86-9.08,9.32-16.75.94,1.84,2.49,3.33,5.08,3.47,3.65.19,6.17-1.68,7.48-7.02,2.25,7.39,9.54,7.39,9.54,7.39,3.54.2,5.51-2.21,6.58-4.5,1.32,6.62,4.08,12.88,9.79,12.92,4.78.06,7.03-6.14,8.17-12.17.86,2.34,2.07,3.91,3.71,4.12,5.15.56,7.3-6.92,9.45-22.83,0,0,.19-.84.84-.56,0,0,.37,0,.37.94,0,.28-.09.75-.09,1.31-.19,2.06-1.5,17.31,4.49,17.77,0,0,4.58,1.03,5.8-5.43,0,0,2.99-14.78,4.3-14.69.28.09.37.84,0,5.8-.19,2.71-.47,5.8-.47,12.44,0,18.52,9.07,17.77,9.07,17.77,7.76-.19,10.2-21.14,10.67-26.38.09-.56-.47-1.03-1.03-.84Zm-169.23-15.16s-.28-2.81,1.03-3.74c0,0,1.12,1.87,2.15,5.52-1.68-.47-2.81-1.03-3.18-1.78Zm-12.35,15.62s1.12-12.26,3.18-12.44c.65-.09,1.03.94,1.12,2.25,0,0-.09,7.39-4.4,12.07,0-1.12.09-1.87.09-1.87Zm-48.92,9.64s-2.25,0-2.06-7.95c1.31,1.68,3.37,2.99,6.17,3.27-1.12,4.02-3.46,4.68-4.12,4.68Zm4.58-6.92c-5.05-.65-7.3-10.85-3.65-11.6,0,0,3.74-.84,3.74,8.42.09,1.22,0,2.25-.09,3.18Zm19.74-5.89c-.09,1.78-1.03,12.82-3.65,12.54,0,0-2.34.56-1.31-9.45,0,0,1.22-12.26,3.27-12.44,1.4-.19,1.68,4.12,1.68,6.64v2.71Zm124.04,0c-.09,1.31-.84,12.91-3.56,12.63,0,0-2.43.56-1.4-9.45,0,0,1.12-12.26,3.27-12.54,1.68-.09,1.68,5.71,1.68,7.76v1.59Z"></path></g><path class="cls-1" d="m838.08,173.17c3.5.62,8.65,4.94,8.65,8.44,0,4.33,0,7.41-2.06,10.5-3.09,5.56-8.44,6.59-14,5.56-3.09-1.24-6.59-1.24-9.68-2.06-3.09,0-4.33-1.03-4.33-4.12v-14.21c0-2.27,3.09-4.12,5.56-4.12,1.03-1.24,1.85-1.24,1.85-1.24h3.5c3.09,0,7.41,1.24,10.5,1.24Zm-17.09-33.57c0-2.47,0-3.09-1.24-5.56v-15.86c1.24-3.71,1.24-6.8,1.24-9.89,0-7.83,0-16.27,1.24-23.68v-21.42c0-1.24,1.03-2.47,1.85-3.71,5.35-1.85,12.15-1.85,17.51-.62,6.18.62,11.74,9.27,9.47,15.86-.82,2.47-.82,5.56-.82,7.41,0,6.59-1.24,12.15-1.24,18.33-1.24,6.59-1.24,13.39-2.27,19.57-.82,4.32-2.06,8.65-3.09,12.15,0,3.09-2.06,6.18-6.38,6.18-3.5,0-7.83,3.09-7.83,7.83,0,1.85-1.03,4.32-1.03,6.18l-.82,1.24c-1.24,1.24-3.5,1.24-2.27,3.09,0,0,0,1.24-1.24,1.24-.82,1.03-4.33-1.24-4.33-3.09,0-1.24,0-3.71-.82-4.33.82-3.5.82-7.83,2.06-10.92Z"></path></svg> 